<svg aria-hidden="true" style="position:absolute;width:0;height:0;overflow:hidden" xmlns="http://www.w3.org/2000/svg">
  <defs>
    <symbol id="icon-facebook" viewBox="0 0 32 32">
      <path fill="#b0b8bc" style="fill:var(--color1, #b0b8bc)" d="M18 11V7a2 2 0 0 1 2-2h2V0h-4a6 6 0 0 0-6 6v5H8v5h4v16h6V16h4l2-5h-6z"/>
    </symbol>
    <symbol id="icon-instagram" viewBox="0 0 32 32">
      <path fill="#b0b8bc" style="fill:var(--color1, #b0b8bc)" d="M10 0h12c5.522 0 10 4.478 10 10v12c0 5.522-4.478 10-10 10H10C4.478 32 0 27.522 0 22V10C0 4.478 4.478 0 10 0zm12 29c3.86 0 7-3.14 7-7V10c0-3.86-3.14-7-7-7H10c-3.86 0-7 3.14-7 7v12c0 3.86 3.14 7 7 7h12zM8 16a8 8 0 1 1 16 0 8 8 0 0 1-16 0zm3 0c0 2.756 2.244 5 5 5s5-2.244 5-5c0-2.758-2.244-5-5-5s-5 2.242-5 5zm14.666-8.6a1.066 1.066 0 1 1-2.131 0 1.066 1.066 0 0 1 2.131 0z"/>
    </symbol>
    <symbol id="icon-linkidIn" viewBox="0 0 32 32">
      <path fill="#b0b8bc" style="fill:var(--color1, #b0b8bc)" d="M7 3.5a3.5 3.5 0 1 1-7 0 3.5 3.5 0 0 1 7 0zM0 10h7.156v22H0V10zm26.6.242-.027-.009c-.05-.016-.099-.033-.153-.048a4.639 4.639 0 0 0-.29-.056 6.414 6.414 0 0 0-1.284-.13c-4.172 0-6.818 3.034-7.69 4.206V9.999H10v22h7.156v-12s5.408-7.532 7.69-2v14H32V17.153c0-3.324-2.278-6.094-5.352-6.896l-.048-.016z"/>
    </symbol>
    <symbol id="icon-twitter" viewBox="0 0 32 32">
      <path fill="#b0b8bc" style="fill:var(--color1, #b0b8bc)" d="M32 5.745c-1.19.522-2.458.868-3.78 1.036a6.523 6.523 0 0 0 2.886-3.626 13.11 13.11 0 0 1-4.16 1.588 6.574 6.574 0 0 0-4.792-2.076c-3.632 0-6.556 2.948-6.556 6.562 0 .52.044 1.02.152 1.496-5.454-.266-10.28-2.88-13.522-6.862a6.605 6.605 0 0 0-.898 3.316 6.57 6.57 0 0 0 2.914 5.452 6.479 6.479 0 0 1-2.964-.808v.072c0 3.188 2.274 5.836 5.256 6.446a6.548 6.548 0 0 1-1.72.216 5.8 5.8 0 0 1-1.242-.112c.85 2.598 3.262 4.508 6.13 4.57a13.182 13.182 0 0 1-8.134 2.798c-.538 0-1.054-.024-1.57-.09a18.469 18.469 0 0 0 10.064 2.944c12.072 0 18.672-10 18.672-18.668 0-.29-.01-.57-.024-.848A13.087 13.087 0 0 0 32 5.745z"/>
    </symbol>
    <symbol id="icon-youtube" viewBox="0 0 32 32">
      <path fill="#b0b8bc" style="fill:var(--color1, #b0b8bc)" d="M26.912 5.518c1.918.108 2.86.392 3.728 1.936.904 1.542 1.36 4.198 1.36 8.876v.016c0 4.656-.456 7.332-1.358 8.858-.868 1.544-1.81 1.824-3.728 1.954-1.918.11-6.736.176-10.91.176-4.182 0-9.002-.066-10.918-.178-1.914-.13-2.856-.41-3.732-1.954C.46 23.676 0 21 0 16.344v-.016c0-4.676.46-7.332 1.354-8.874.876-1.546 1.82-1.828 3.734-1.938 1.914-.128 6.734-.182 10.916-.182 4.174 0 8.992.054 10.908.184zM22 16.334l-10-6v12l10-6z"/>
    </symbol>
  </defs>
</svg>